<svg width="27" height="18" viewBox="0 0 27 18" fill="none" xmlns="http://www.w3.org/2000/svg">
<path fill-rule="evenodd" clip-rule="evenodd" d="M0.114258 1.22594C0.114258 0.555073 0.666928 0.0112305 1.34868 0.0112305H25.0496C25.7314 0.0112305 26.284 0.555073 26.284 1.22594C26.284 1.8968 25.7314 2.44064 25.0496 2.44064H1.34868C0.666928 2.44064 0.114258 1.8968 0.114258 1.22594Z" fill="#1E202C"/>
<path fill-rule="evenodd" clip-rule="evenodd" d="M0.114258 9.00005C0.114258 8.32919 0.666928 7.78535 1.34868 7.78535H25.0496C25.7314 7.78535 26.284 8.32919 26.284 9.00005C26.284 9.67092 25.7314 10.2148 25.0496 10.2148H1.34868C0.666928 10.2148 0.114258 9.67092 0.114258 9.00005Z" fill="#1E202C"/>
<path fill-rule="evenodd" clip-rule="evenodd" d="M0.114258 16.7742C0.114258 16.1033 0.666928 15.5595 1.34868 15.5595H25.0496C25.7314 15.5595 26.284 16.1033 26.284 16.7742C26.284 17.445 25.7314 17.9889 25.0496 17.9889H1.34868C0.666928 17.9889 0.114258 17.445 0.114258 16.7742Z" fill="#1E202C"/>
</svg>
